<?xml version="1.0" ?><svg height="64" viewBox="0 0 64 64" width="64" xmlns="http://www.w3.org/2000/svg"><title/><g data-name="set-016@surgeon-white-male" id="a6bd5c04-fd7a-494f-9340-6044164967e6"><g data-name="firefighter-black-male" id="afc7b263-e112-467e-8c10-e1dc2b42958c"><g data-name="firefighter-black-male-2" id="ac738206-a84f-4e93-877e-ef9170beb1a0"><g data-name="Icons" id="b44f9fe1-d8e7-4c8c-9384-ad68542edd7c"><path d="M59,52.94a6.858,6.858,0,0,0-5.25-5c-6.41-1.51-12.16-2.8-14.6-3.34V41.66h-15v3.05c-2.78.59-8.4,1.81-14.4,3.23a6.858,6.858,0,0,0-5.25,5L4,55.44a70.024,70.024,0,0,0,27.75,5.87A70.024,70.024,0,0,0,59.5,55.44Z" fill="#87604d"/><path d="M39.08,46.62A17.323,17.323,0,0,1,32,47.94a16.354,16.354,0,0,1-7.59-1.59l7.33,8.7Z" fill="#333" stroke="#333" stroke-linejoin="round" stroke-width="1.5"/><path d="M59,52.94a6.858,6.858,0,0,0-5.25-5c-8.49-2-11.5-2.75-11.5-2.75h-.62c-1.35,1.23-4,2.07-6.13,2.62a5.889,5.889,0,0,0-4.43,5.76c-.14-2.75-1.37-5.06-4.06-5.76-2.09-.54-4.27-1.38-5.34-2.62h-.42s-3,.75-11.5,2.75a6.858,6.858,0,0,0-5.25,5L4,55.44a70.024,70.024,0,0,0,27.75,5.87A70.024,70.024,0,0,0,59.5,55.44Z" fill="#d1c5a7"/><path d="M53.75,50.93c-4.83-1.14-8.76-2.38-11.26-3.24V43.55c0,2.17-4.08,4-7,4.72a5.369,5.369,0,0,0-4.43,5.29C30.93,50.81,29.7,48.5,27,47.8c-2.91-.76-6-2.08-6-4.25V48c-2.3.65-6.18,1.69-11.26,2.89a6.929,6.929,0,0,0-5.19,4.76,71.009,71.009,0,0,0,26.53,5.6h.66a70.836,70.836,0,0,0,27.19-5.61A6.929,6.929,0,0,0,53.75,50.93Z" fill="#c6bc9e"/><path d="M21.25,45.18s-3,.75-11.5,2.75a6.858,6.858,0,0,0-5.25,5L4,55.43A70.024,70.024,0,0,0,31.75,61.3,70.024,70.024,0,0,0,59.5,55.43l-.5-2.5a6.858,6.858,0,0,0-5.25-5c-8.49-2-11.5-2.75-11.5-2.75" fill="none" stroke="#333" stroke-linejoin="round" stroke-width="1.5"/><path d="M23.36,40.68C21.9,41.47,21,42.47,21,43.55c0,1.51,1.5,2.61,3.39,3.39V41.81C24,41.4,23.65,41,23.36,40.68Z" fill="#333" stroke="#333" stroke-linejoin="round" stroke-width="1.5"/><path d="M40.14,40.68c-.29.36-.64.73-1,1.14V47c1.89-.78,3.39-1.88,3.39-3.39C42.49,42.46,41.6,41.47,40.14,40.68Z" fill="#333" stroke="#333" stroke-linejoin="round" stroke-width="1.5"/><path d="M18.31,59.93V44.2l-6.72,1.7V58.25C13.54,58.83,15.8,59.42,18.31,59.93Z" fill="#333" stroke="#333" stroke-linejoin="round" stroke-width="1.5"/><path d="M51.91,58.25V45.9l-6.72-1.7V59.93C47.7,59.42,50,58.83,51.91,58.25Z" fill="#333" stroke="#333" stroke-linejoin="round" stroke-width="1.5"/><path d="M31.09,53.86C31,51,29.8,48.52,27,47.8s-6-2.08-6-4.25V49.2" fill="none" stroke="#333" stroke-linejoin="round" stroke-width="1.5"/><path d="M42.49,49.2V43.55c0,2.17-4.08,4-7,4.72a5.509,5.509,0,0,0-4.41,5.59V61.3" fill="none" stroke="#333" stroke-linejoin="round" stroke-width="1.5"/><path d="M42.73,27.13v-2.2c0-5.95-2.09-12.08-11-12.08s-11,6.13-11,12.08v2.2c-.09,0-3.29,0-2.2,5.49a4.271,4.271,0,0,0,3.29,3.29c0,3.9,1.1,4.39,4.81,8.21,1.43,1.82,3.17,1.67,5.07,1.67s3.65.15,5.07-1.67c3.71-3.82,4.81-4.31,4.81-8.21a4.271,4.271,0,0,0,3.29-3.29C46,27.13,42.82,27.1,42.73,27.13Z" fill="#ab8166"/><path d="M41.93,32.23c1,0,2.06-.06,3.08-.14.78-4.94-2.2-5-2.28-5v-2.2c0-6-2.09-12.08-11-12.08s-11,6.13-11,12.08v2.2c-.08,0-3.06,0-2.28,5,1,.09,2.05.14,3.08.14Z" fill="#a0775c"/><path d="M23.38,34.82a3.67,3.67,0,0,1-1.52-3.29V28.84a2.441,2.441,0,0,0-1.46-1.65c-.83.17-2.72,1-1.83,5.45a4.271,4.271,0,0,0,3.29,3.29c0,3.3.8,4.17,3.29,6.68V39.23A5.218,5.218,0,0,0,23.38,34.82Z" fill="#a0775c"/><path d="M44.92,32.62c1.1-5.49-2.11-5.52-2.2-5.49v-2.2c0-5.95-2.09-12.08-11-12.08a15.3,15.3,0,0,0-2.92.26v12A3.9,3.9,0,0,1,27.55,28a.451.451,0,0,0,.2.77c1.5.43,2.3.71,3.23.47.31-.08.86.27.86.59V31.4a1.69,1.69,0,0,0,.64,1.4,1.1,1.1,0,0,1-.64,2c-.81,0-1.1-.55-2.2-.55-.65,0-.55.85-.57.82a2.366,2.366,0,0,1,1.1.29,3.379,3.379,0,0,0,1.65.43V39.1a1.911,1.911,0,0,0,1.25,1.76A1.55,1.55,0,0,1,34,42.5c0,3-5.43-.3-5.43,3h0a9.9,9.9,0,0,0,3.16.29c1.9,0,3.65.15,5.07-1.67,3.71-3.82,4.81-4.31,4.81-8.21A4.27,4.27,0,0,0,44.92,32.62Z" fill="#a0775c"/><path d="M28.83,13.12v12A3.9,3.9,0,0,1,27.56,28a.451.451,0,0,0,.2.77c1.5.43,2.3.71,3.23.47.31-.08.86.27.86.59a5.606,5.606,0,0,0,.17,2.37c9.48,0,10.17.1,13-.14.73-4.63-1.84-5-2.23-4.95h0c-.27-1.13,2-14.27-11-14.27A15.475,15.475,0,0,0,28.83,13.12Z" fill="#916953"/><path d="M42.76,27.13A2.179,2.179,0,0,0,41.64,29v2.53a3.642,3.642,0,0,1-1.52,3.29,5.237,5.237,0,0,0-1.78,4.39v3.38c2.5-2.51,3.29-3.38,3.29-6.68a4.271,4.271,0,0,0,3.29-3.29C46,27.31,43,27.11,42.76,27.13Z" fill="#916953"/><path d="M42.73,27.13v-2.2c0-5.95-2.09-12.08-11-12.08s-11,6.13-11,12.08v2.2c-.09,0-3.29,0-2.2,5.49a4.271,4.271,0,0,0,3.29,3.29c0,3.9,1.1,4.39,4.81,8.21,1.43,1.82,3.17,1.67,5.07,1.67s3.65.15,5.07-1.67c3.71-3.82,4.81-4.31,4.81-8.21a4.271,4.271,0,0,0,3.29-3.29C46,27.13,42.82,27.1,42.73,27.13Z" fill="none" stroke="#333" stroke-linejoin="round" stroke-width="1.5"/><line fill="none" stroke="#936b55" stroke-linecap="round" stroke-miterlimit="10" stroke-width="0.75" x1="31.73" x2="31.73" y1="35.78" y2="36.78"/><line fill="none" stroke="#936b55" stroke-linecap="round" stroke-miterlimit="10" stroke-width="0.75" x1="30.81" x2="32.81" y1="40.6" y2="40.6"/><line fill="none" stroke="#936b55" stroke-linecap="round" stroke-miterlimit="10" stroke-width="0.75" x1="31.6" x2="31.85" y1="43.55" y2="43.55"/><path d="M33.09,37.64a2.812,2.812,0,0,0-1.18.13.618.618,0,0,1-.42,0,2.845,2.845,0,0,0-1.18-.13c-.67.1-.74.52-2.09,1.25l1.19.73a2.3,2.3,0,0,0,1.27.41h2.07A2.214,2.214,0,0,0,34,39.62l1.23-.7C33.89,38.19,33.76,37.74,33.09,37.64Z" fill="#916953"/><path d="M35.24,38.92c-1,0-1.26-.39-2.24-.39a6.6,6.6,0,0,0-1.29.17,7.473,7.473,0,0,0-1.29-.17c-.94,0-1.15.36-2.21.36" fill="none" stroke="#674848" stroke-linecap="round" stroke-miterlimit="10" stroke-width="0.75"/><path d="M29,34.9a2.669,2.669,0,0,1,1.31.34h0a2.751,2.751,0,0,0,2.61,0h0a2.743,2.743,0,0,1,1.31-.34" fill="none" stroke="#674848" stroke-linecap="round" stroke-miterlimit="10" stroke-width="0.75"/><path d="M24.13,28.24a5.946,5.946,0,0,1,1.45-.55,5.549,5.549,0,0,1,1.58-.09,9.7,9.7,0,0,1,2.82,1h0a.23.23,0,0,1,.12.3.242.242,0,0,1-.23.14,12.589,12.589,0,0,1-1.48-.26c-.47-.09-.93-.14-1.37-.21a7.27,7.27,0,0,0-2.75.06h0a.223.223,0,1,1-.15-.42h0Z" fill="#333"/><path d="M39.07,28.66a7.27,7.27,0,0,0-2.75-.06c-.45.07-.9.12-1.37.21a12.589,12.589,0,0,1-1.48.26.221.221,0,0,1-.239-.2.127.127,0,0,1,0-.02.23.23,0,0,1,.14-.23h0a9.7,9.7,0,0,1,2.82-1,6.388,6.388,0,0,1,1.58.09,5.168,5.168,0,0,1,1.45.55.231.231,0,1,1-.17.43h0Z" fill="#333"/><circle cx="27.2" cy="30.32" fill="#333" r="0.71"/><circle cx="36.16" cy="30.32" fill="#333" r="0.71"/><path d="M31.75,12.86c-8.89,0-11,6.13-11,12.08v2.82a12.446,12.446,0,0,1,1.4,4,1.22,1.22,0,0,0,1-1.19V26.24a7.7,7.7,0,0,0-.28-2.3,2.671,2.671,0,0,1,.49-2.45c1.31-1.31,4.45-1.45,6.67.32l.75.61c2.14,1.74,3.82,3.11,6.87,3.11H40.4v5.15a1.311,1.311,0,0,0,.94,1.25,8.93,8.93,0,0,1,1.39-4V25C42.73,19,40.64,12.86,31.75,12.86Z" fill="#a0775c"/><path d="M28.83,13.12h0v8c3.8,1.78,2.73,4.44,11.58,4.44v5.15a1.311,1.311,0,0,0,.94,1.25,8.93,8.93,0,0,1,1.39-4c0-2.32,1.11-12-6.66-14.48A15.915,15.915,0,0,0,28.83,13.12Z" fill="#87604d"/><path d="M38.9,15c.47,0,1.19-.24,1.64-.2C37.64,12,26.28,10,23.15,16.27c-7.87,2.7-1,12.5-1,15.5V26.19a7.062,7.062,0,0,0-.24-2,3.638,3.638,0,0,1,.75-3.42c1.77-1.77,5.5-1.75,8,.25s4,3.5,7,3.5H41.4V32c0-3.08,1.5-4,3-7.23C46.41,20.43,42.42,16.81,38.9,15Z" fill="#333"/><path d="M23.15,16.27a6.233,6.233,0,0,0-2.23,1.26h0c-2.52,2.28-1.46,6.16-.31,9.37h0c-1.23-6-.41-9.56,7.65-9.56,0,0-1-.41-1.86-.72a22.072,22.072,0,0,1,6.37-.36,23.2,23.2,0,0,0-4.34-.81c3.09-.71,5.2-.44,8.37,0a22.593,22.593,0,0,0-7.7-1.2H29c3.66-.92,8.09-.16,11.48.54C37.28,11.59,26.09,10.41,23.15,16.27Z" fill="#614938"/><path d="M21.9,31.77l-.06-5.59a6.138,6.138,0,0,0-.21-1.59,7.332,7.332,0,0,1-.21-.86,4.713,4.713,0,0,1,0-.92,3.7,3.7,0,0,1,.54-1.8,3.986,3.986,0,0,1,1.39-1.28,7,7,0,0,1,7,.4,13.2,13.2,0,0,1,1.39,1.07c.43.36.86.72,1.3,1.06a8.862,8.862,0,0,0,2.78,1.6,11.081,11.081,0,0,0,3.24.32l3.38.09a.259.259,0,0,1,.25.26.25.25,0,0,1-.25.25L39,24.87a11.46,11.46,0,0,1-3.47-.23c-2.37-.64-4-2.5-5.78-3.65a6.347,6.347,0,0,0-6-.47,2.987,2.987,0,0,0-1.11.95,2.909,2.909,0,0,0-.46,1.4,4.492,4.492,0,0,0,.16,1.56,7,7,0,0,1,.12,1.77l-.05,5.57a.26.26,0,0,1-.26.25.25.25,0,0,1-.25-.25Z" fill="#333"/><path d="M41.06,32a7,7,0,0,1,.41-2.64A14.948,14.948,0,0,1,42.66,27a23.47,23.47,0,0,0,1.16-2.21,5.361,5.361,0,0,0,.57-2.24,6,6,0,0,0-1.86-4.14,14.218,14.218,0,0,0-3.93-2.83.66.66,0,0,1,.31-1.25h0a5.054,5.054,0,0,0,.66-.1,3.751,3.751,0,0,1,1-.12l-.54,1.16a9.881,9.881,0,0,0-4-1.86,17.877,17.877,0,0,0-4.6-.55,12.25,12.25,0,0,0-4.45.84,6.206,6.206,0,0,0-3.21,2.84h0a.643.643,0,0,1-.37.32,4.75,4.75,0,0,0-3,2.34,6.81,6.81,0,0,0-.29,4,26.41,26.41,0,0,0,1.19,4.2l.7,2.1a8.06,8.06,0,0,1,.49,2.27.34.34,0,0,1-.33.35h0a.351.351,0,0,1-.35-.32h0a7.662,7.662,0,0,0-.55-2l-.81-2.05a26.788,26.788,0,0,1-1.37-4.28,7.841,7.841,0,0,1,.23-4.68,5.05,5.05,0,0,1,1.52-2A7.7,7.7,0,0,1,23,15.63l-.38.33a7.644,7.644,0,0,1,3.82-3.58,12.7,12.7,0,0,1,5-1,18.381,18.381,0,0,1,5,.62,11.165,11.165,0,0,1,4.62,2.33h0a.686.686,0,0,1-.59,1.15,2.628,2.628,0,0,0-.63.08,4.373,4.373,0,0,1-1,.11l.33-1.25a15.431,15.431,0,0,1,4.22,3.2,7.06,7.06,0,0,1,2,5,6.54,6.54,0,0,1-.73,2.64,22.759,22.759,0,0,1-1.3,2.25,13.645,13.645,0,0,0-1.22,2.15A6.645,6.645,0,0,0,41.78,32a.361.361,0,0,1-.72.01Z" fill="#333"/><path d="M29.34,17.72a7.586,7.586,0,0,1,4.88,1.37c.7.47,1.31,1,1.93,1.42s1.31.84,2.05,1.31a5.113,5.113,0,0,1-2.59-.27,10.257,10.257,0,0,1-2.22-1.21c-.66-.45-1.29-.86-2-1.28A23.9,23.9,0,0,1,29.34,17.72Z" fill="#614938"/><path d="M46.79,20.56a15.17,15.17,0,0,0-30.33,0v6H46.79Z" fill="#333"/><path d="M29.23,2.89,23,8a1.128,1.128,0,0,0-.41,1l1.9,16.6a1.131,1.131,0,0,0,1.12,1H37.9a1.131,1.131,0,0,0,1.12-1L40.92,9a1.128,1.128,0,0,0-.41-1L34.26,2.89A4,4,0,0,0,29.23,2.89Z" fill="#444" stroke="#333" stroke-linecap="round" stroke-linejoin="round" stroke-width="1.5"/><path d="M39,21.76H24.26a1.12,1.12,0,0,1-1.12-1.12h0V14.16A1.12,1.12,0,0,1,24.219,13H39a1.119,1.119,0,0,1,1.12,1.12V20.6a1.12,1.12,0,0,1-1.079,1.159Z" fill="#555" stroke="#333" stroke-linecap="round" stroke-linejoin="round" stroke-width="1.5"/><path d="M20.15,21.76V13.05H18.46a15.069,15.069,0,0,0-2,7.51v1.2Z" fill="#e3ff92"/><path d="M43.1,21.76h3.69v-1.2a14.994,14.994,0,0,0-2-7.51H43.1Z" fill="#e3ff92"/><path d="M46.79,20.56a15.17,15.17,0,0,0-30.33,0v6H46.79Z" fill="none" stroke="#333" stroke-linecap="round" stroke-linejoin="round" stroke-width="1.5"/><path d="M29.27,17.66H28.1v1.56h1.38l-.13,1H27V14.48h2.34v1H28.1V16.7h1.18v1Z" fill="#fff"/><path d="M30.3,16.16v-.25c0-.67.23-1.36,1.31-1.36a1.17,1.17,0,0,1,1.3,1.019,1.2,1.2,0,0,1,0,.311v.21c0,.64-.25.94-.57,1.07h0A1,1,0,0,1,33,18.28v.44c0,.94-.36,1.53-1.42,1.53a1.212,1.212,0,0,1-1.363-1.036,1.239,1.239,0,0,1,0-.344v-.21h1v.24c0,.27.07.5.35.5s.34-.25.34-.53v-.58c0-.45-.13-.62-.56-.62h-.3v-.89h.32c.35,0,.48-.13.48-.55V15.9c0-.27,0-.48-.29-.48s-.3.2-.3.45v.3h-1Z" fill="#fff"/><path d="M35.42,20.18V18.9H33.89v-.84l1-3.43h1.53V18h.37l-.07.88h-.29v1.28h-1Zm0-2.8V15.57h0c-.17.74-.38,1.69-.57,2.44h.55Z" fill="#fff"/><path d="M51.91,25h0a32.917,32.917,0,0,1-10,1.56H21.57a32.917,32.917,0,0,1-10-1.56h0" fill="none" stroke="#333" stroke-linecap="round" stroke-linejoin="round" stroke-width="3"/><path d="M31.62,5.4a20.354,20.354,0,0,0-8.8,2l2,4.33h13.5l2-4.35A20.29,20.29,0,0,0,31.62,5.4Z" fill="#ccc" stroke="#333" stroke-linecap="round" stroke-linejoin="round" stroke-width="1.5"/><path d="M25.65,7.82l2.26-.49.11.53-1.6.34.13.63L28,8.51l.12.54-1.49.32.23,1.06-.67.14Z" fill="#333"/><path d="M29.8,7.14,30.06,10l-.68.06-.26-2.8Z" fill="#333"/><path d="M31.94,8.81V9.89h-.68L31.33,7l1.53.06c.65,0,1,.36,1,.84a.662.662,0,0,1-.52.65.619.619,0,0,1,.39.68v.14a2.322,2.322,0,0,0,0,.54h-.7a2.265,2.265,0,0,1,0-.57V9.26c0-.28-.09-.41-.5-.42Zm0-.51h.7c.33,0,.48-.1.49-.34s-.13-.35-.46-.37h-.71Z" fill="#333"/><path d="M37.17,9.39l-1.54-.32-.13.63,1.71.35-.19.52-2.31-.48.57-2.76,2.29.47-.11.54L35.84,8l-.11.52,1.54.32Z" fill="#333"/></g></g></g></g></svg>